<svg xmlns="http://www.w3.org/2000/svg" width="296.563" height="40.303" viewBox="0 0 296.563 40.303">
  <g id="Groupe_16" data-name="Groupe 16" transform="translate(-303.571 -1888.065)">
    <path id="Tracé_28" data-name="Tracé 28" d="M303.571,1928.543V1888.8H320.42a11.345,11.345,0,0,1,5.038,1.12,12.987,12.987,0,0,1,4,3.023,14.448,14.448,0,0,1,2.659,4.254,12.732,12.732,0,0,1,.952,4.814,13.682,13.682,0,0,1-1.567,6.381,13.409,13.409,0,0,1-4.31,4.926,11.105,11.105,0,0,1-6.493,1.9h-9.4v13.323Zm7.725-20.1h8.956a4.284,4.284,0,0,0,2.519-.784,5.4,5.4,0,0,0,1.792-2.267,8.132,8.132,0,0,0,.671-3.387,7.583,7.583,0,0,0-.755-3.527,5.354,5.354,0,0,0-1.959-2.183,4.951,4.951,0,0,0-2.6-.728H311.3Z" transform="translate(0 -0.454)" fill="#fff"/>
    <path id="Tracé_29" data-name="Tracé 29" d="M413.954,1898.757a9.607,9.607,0,0,0-1.427-1.063,15.853,15.853,0,0,0-2.519-1.288,27.242,27.242,0,0,0-3.219-1.091,13.3,13.3,0,0,0-3.526-.476,7.955,7.955,0,0,0-4.73,1.17,3.839,3.839,0,0,0-1.6,3.286,3.347,3.347,0,0,0,1.008,2.563,8.136,8.136,0,0,0,3.022,1.615q2.016.669,5.038,1.448a35.406,35.406,0,0,1,6.8,2.311,10.97,10.97,0,0,1,4.422,3.565,9.959,9.959,0,0,1,1.539,5.82,11.617,11.617,0,0,1-1.176,5.431,9.739,9.739,0,0,1-3.246,3.648,14.476,14.476,0,0,1-4.7,2.033,23.63,23.63,0,0,1-5.6.64,29.164,29.164,0,0,1-5.934-.615,31.08,31.08,0,0,1-5.71-1.763,26.115,26.115,0,0,1-5.038-2.771l3.415-6.661a11.022,11.022,0,0,0,1.792,1.316,24,24,0,0,0,3.134,1.623,26.008,26.008,0,0,0,4.031,1.372,17.7,17.7,0,0,0,4.422.56,8.8,8.8,0,0,0,4.758-1.051,3.608,3.608,0,0,0,.336-5.776,11.894,11.894,0,0,0-3.582-1.756q-2.3-.753-5.43-1.644a33.3,33.3,0,0,1-6.269-2.37,9.257,9.257,0,0,1-3.751-3.317,9.429,9.429,0,0,1-1.232-5.017,11.617,11.617,0,0,1,1.932-6.828,12.037,12.037,0,0,1,5.233-4.181,18.353,18.353,0,0,1,7.333-1.422,22.011,22.011,0,0,1,5.29.616,26.1,26.1,0,0,1,4.674,1.623,27.649,27.649,0,0,1,3.918,2.183Z" transform="translate(-51.832)" fill="#fff"/>
    <path id="Tracé_30" data-name="Tracé 30" d="M602.505,1907.881a20.124,20.124,0,0,1,1.315-7.137,20.717,20.717,0,0,1,3.835-6.381,18.5,18.5,0,0,1,6.158-4.59,19.279,19.279,0,0,1,8.284-1.708,18.073,18.073,0,0,1,9.488,2.407,15.383,15.383,0,0,1,5.961,6.269l-5.934,4.086a9.475,9.475,0,0,0-2.631-3.554,9.815,9.815,0,0,0-3.471-1.847,13.121,13.121,0,0,0-3.639-.532,10.419,10.419,0,0,0-5.066,1.176,11.294,11.294,0,0,0-3.611,3.079,13.068,13.068,0,0,0-2.155,4.254,16.4,16.4,0,0,0-.7,4.7,15.432,15.432,0,0,0,.84,5.066,13.817,13.817,0,0,0,2.379,4.31,11.386,11.386,0,0,0,3.695,2.967,10.31,10.31,0,0,0,4.73,1.091,12.113,12.113,0,0,0,3.75-.616,10.652,10.652,0,0,0,3.527-1.959,8.9,8.9,0,0,0,2.519-3.471l6.325,3.639a11.841,11.841,0,0,1-3.835,5.037,19.16,19.16,0,0,1-5.961,3.135,21.273,21.273,0,0,1-6.55,1.063,17.15,17.15,0,0,1-7.781-1.763,19.468,19.468,0,0,1-6.074-4.7,22.419,22.419,0,0,1-3.974-6.6A20.3,20.3,0,0,1,602.505,1907.881Z" transform="translate(-184.91)" fill="#fff"/>
    <path id="Tracé_31" data-name="Tracé 31" d="M737.083,1921.769v6.773h-27.6V1888.8h27.093v6.773H717.211v9.572h16.737v6.27H717.211v10.356Z" transform="translate(-251.085 -0.454)" fill="#fff"/>
    <path id="Tracé_32" data-name="Tracé 32" d="M797.685,1928.543V1888.8h17.577a11.519,11.519,0,0,1,5.066,1.12,12.89,12.89,0,0,1,4.03,3.023,13.988,13.988,0,0,1,2.631,4.254,13.062,13.062,0,0,1,.924,4.814,13.73,13.73,0,0,1-.868,4.842,12.029,12.029,0,0,1-2.491,4.058,11.386,11.386,0,0,1-3.807,2.687l9.069,14.946h-8.509l-8.173-13.323H805.41v13.323Zm7.725-20.1h9.684a4.087,4.087,0,0,0,2.575-.868,6.108,6.108,0,0,0,1.791-2.323,7.655,7.655,0,0,0,.672-3.247,6.816,6.816,0,0,0-.783-3.331,6.56,6.56,0,0,0-1.987-2.267,4.466,4.466,0,0,0-2.6-.839H805.41Z" transform="translate(-305.642 -0.454)" fill="#fff"/>
    <path id="Tracé_33" data-name="Tracé 33" d="M907.389,1928.368a17.419,17.419,0,0,1-7.3-1.567,19.049,19.049,0,0,1-6.046-4.338,20.1,20.1,0,0,1-4.058-6.465,21.636,21.636,0,0,1-1.456-8,20.384,20.384,0,0,1,1.456-7.7,19.739,19.739,0,0,1,4.086-6.354,19.327,19.327,0,0,1,6.157-4.31,18.674,18.674,0,0,1,7.669-1.567,18.463,18.463,0,0,1,9.6,2.379,15.492,15.492,0,0,1,6.017,6.3L917.745,1901a10.7,10.7,0,0,0-4.226-4.534,11.611,11.611,0,0,0-5.906-1.568,9.907,9.907,0,0,0-4.59,1.063,11.212,11.212,0,0,0-3.582,2.911,13.412,13.412,0,0,0-2.323,4.255,15.83,15.83,0,0,0-.812,5.094,15.407,15.407,0,0,0,.867,5.262,12.724,12.724,0,0,0,2.463,4.2,11.913,11.913,0,0,0,3.722,2.827,10.585,10.585,0,0,0,4.7,1.036,11.6,11.6,0,0,0,5.794-1.567,18.111,18.111,0,0,0,5.178-4.59v7.613A15.416,15.416,0,0,1,907.389,1928.368Zm11.084-15.057h-8v-5.654h14.386v20.432h-6.381Z" transform="translate(-361.833)" fill="#fff"/>
    <path id="Tracé_34" data-name="Tracé 34" d="M993.781,1888.8l9.8,18.7,9.964-18.7h8.34l-14.442,25.861v13.883H999.77v-13.994l-14.386-25.75Z" transform="translate(-421.746 -0.454)" fill="#fff"/>
    <path id="Tracé_35" data-name="Tracé 35" d="M500.051,1888.345,492.1,1903.27v-15.2h-3.918V1903.4l-7.887-15.054h-8.4l14.386,25.749v13.994h7.669v-13.882l14.442-25.861Z" transform="translate(-104.119 0)" fill="#fff"/>
  </g>
</svg>
