<svg xmlns="http://www.w3.org/2000/svg" width="1921.212" height="975" viewBox="0 0 1921.212 975">
  <g id="header" transform="translate(0 91)">
    <path id="Tracé_19" data-name="Tracé 19" d="M1921.212,738.424S1739.273,405.97,1512,330.424,992.485,240.818,565.212,213.757.212-9.576.212-9.576L0-236.576H1921.212Z" transform="translate(0 145.576)" fill="#f8e0c2"/>
    <path id="Tracé_18" data-name="Tracé 18" d="M1921.212,723S1785,423,1502,347c-186.354-49.572-945.719-95.991-946-96C195.531,238.946,0,66.242,0,66.242V-154.97H1921.212Z" transform="translate(0 67)" fill="#10aaa4"/>
    <path id="Tracé_17" data-name="Tracé 17" d="M1921.212,757S1788,527,1556,459,827.763,374.63,542,363C193.921,348.834,0,222,0,222V0H1921.212Z" transform="translate(0 -91)" fill="#036d7d"/>
  </g>
</svg>
