<svg xmlns="http://www.w3.org/2000/svg" width="301.689" height="41" viewBox="0 0 301.689 41">
  <g id="Groupe_30" data-name="Groupe 30" transform="translate(-303.571 -1888.065)">
    <path id="Tracé_28" data-name="Tracé 28" d="M303.571,1929.239V1888.8H320.42a11.183,11.183,0,0,1,5.038,1.139,13.012,13.012,0,0,1,4,3.076,14.744,14.744,0,0,1,2.659,4.329,13.153,13.153,0,0,1,.952,4.9,14.119,14.119,0,0,1-1.567,6.493,13.574,13.574,0,0,1-4.31,5.012,10.968,10.968,0,0,1-6.493,1.936h-9.4v13.556Zm7.725-20.448h8.956a4.234,4.234,0,0,0,2.519-.8,5.482,5.482,0,0,0,1.792-2.307,8.4,8.4,0,0,0,.671-3.446,7.829,7.829,0,0,0-.755-3.588,5.416,5.416,0,0,0-1.959-2.221,4.887,4.887,0,0,0-2.6-.74H311.3Z" transform="translate(0 -0.454)"/>
    <path id="Tracé_29" data-name="Tracé 29" d="M413.954,1898.941a9.61,9.61,0,0,0-1.427-1.082,15.744,15.744,0,0,0-2.519-1.31,26.99,26.99,0,0,0-3.219-1.11,13.106,13.106,0,0,0-3.526-.484,7.851,7.851,0,0,0-4.73,1.19,3.929,3.929,0,0,0-1.6,3.342,3.436,3.436,0,0,0,1.008,2.607,8.1,8.1,0,0,0,3.022,1.643q2.016.681,5.038,1.473a35.026,35.026,0,0,1,6.8,2.351,11.012,11.012,0,0,1,4.422,3.627,10.263,10.263,0,0,1,1.539,5.92,11.989,11.989,0,0,1-1.176,5.525,9.856,9.856,0,0,1-3.246,3.711,14.349,14.349,0,0,1-4.7,2.069,23.25,23.25,0,0,1-5.6.651,28.671,28.671,0,0,1-5.934-.626,30.651,30.651,0,0,1-5.71-1.794,25.985,25.985,0,0,1-5.038-2.818l3.415-6.777a11.032,11.032,0,0,0,1.792,1.338,23.834,23.834,0,0,0,3.134,1.651,25.707,25.707,0,0,0,4.031,1.4,17.419,17.419,0,0,0,4.422.57,8.686,8.686,0,0,0,4.758-1.069,3.708,3.708,0,0,0,.336-5.876,11.813,11.813,0,0,0-3.582-1.787q-2.3-.766-5.43-1.673a32.949,32.949,0,0,1-6.269-2.41,9.313,9.313,0,0,1-3.751-3.374,9.723,9.723,0,0,1-1.232-5.1,11.486,11.486,0,0,1,7.165-11.2,18.083,18.083,0,0,1,7.333-1.447,21.661,21.661,0,0,1,5.29.626,25.823,25.823,0,0,1,4.674,1.652,27.516,27.516,0,0,1,3.918,2.221Z" transform="translate(-51.832)"/>
    <path id="Tracé_30" data-name="Tracé 30" d="M602.505,1908.223a20.784,20.784,0,0,1,1.315-7.26,21.153,21.153,0,0,1,3.835-6.492,18.532,18.532,0,0,1,6.158-4.669,19,19,0,0,1,8.284-1.737,17.831,17.831,0,0,1,9.488,2.449,15.536,15.536,0,0,1,5.961,6.377l-5.934,4.157a9.63,9.63,0,0,0-2.631-3.616,9.763,9.763,0,0,0-3.471-1.879,12.915,12.915,0,0,0-3.639-.541,10.274,10.274,0,0,0-5.066,1.2,11.348,11.348,0,0,0-3.611,3.132,13.381,13.381,0,0,0-2.155,4.328,16.944,16.944,0,0,0-.7,4.783,15.943,15.943,0,0,0,.84,5.153,14.128,14.128,0,0,0,2.379,4.385,11.429,11.429,0,0,0,3.695,3.019,10.167,10.167,0,0,0,4.73,1.11,11.93,11.93,0,0,0,3.75-.626,10.6,10.6,0,0,0,3.527-1.993,9.051,9.051,0,0,0,2.519-3.531l6.325,3.7a12.026,12.026,0,0,1-3.835,5.125,19.052,19.052,0,0,1-5.961,3.189,20.945,20.945,0,0,1-6.55,1.082,16.909,16.909,0,0,1-7.78-1.794,19.514,19.514,0,0,1-6.074-4.783,22.89,22.89,0,0,1-3.974-6.719A20.96,20.96,0,0,1,602.505,1908.223Z" transform="translate(-182.671)"/>
    <path id="Tracé_31" data-name="Tracé 31" d="M737.083,1922.347v6.892h-27.6V1888.8h27.093v6.892H717.211v9.74h16.737v6.38H717.211v10.537Z" transform="translate(-248.135 -0.454)"/>
    <path id="Tracé_32" data-name="Tracé 32" d="M797.685,1929.239V1888.8h17.577a11.354,11.354,0,0,1,5.066,1.139,12.913,12.913,0,0,1,4.03,3.076,14.279,14.279,0,0,1,2.631,4.329,13.5,13.5,0,0,1,.924,4.9,14.19,14.19,0,0,1-.868,4.927,12.278,12.278,0,0,1-2.491,4.129,11.391,11.391,0,0,1-3.807,2.734l9.069,15.208h-8.509l-8.173-13.556H805.41v13.556Zm7.725-20.448h9.684a4.041,4.041,0,0,0,2.575-.883,6.2,6.2,0,0,0,1.791-2.364,7.907,7.907,0,0,0,.672-3.3,7.034,7.034,0,0,0-.784-3.389,6.642,6.642,0,0,0-1.987-2.307,4.413,4.413,0,0,0-2.6-.854H805.41Z" transform="translate(-301.989 -0.454)"/>
    <path id="Tracé_33" data-name="Tracé 33" d="M907.389,1929.065a17.173,17.173,0,0,1-7.3-1.594,19.062,19.062,0,0,1-6.046-4.413,20.5,20.5,0,0,1-4.058-6.577,22.35,22.35,0,0,1-1.456-8.143,21.054,21.054,0,0,1,1.456-7.83,20.129,20.129,0,0,1,4.086-6.463,19.328,19.328,0,0,1,6.157-4.385,18.4,18.4,0,0,1,7.669-1.594,18.217,18.217,0,0,1,9.6,2.42,15.648,15.648,0,0,1,6.017,6.406l-5.765,4.328a10.817,10.817,0,0,0-4.226-4.612,11.459,11.459,0,0,0-5.906-1.595,9.772,9.772,0,0,0-4.59,1.082,11.256,11.256,0,0,0-3.582,2.961,13.716,13.716,0,0,0-2.323,4.328,16.356,16.356,0,0,0-.812,5.182,15.919,15.919,0,0,0,.867,5.353,12.989,12.989,0,0,0,2.463,4.271,11.936,11.936,0,0,0,3.722,2.876,10.438,10.438,0,0,0,4.7,1.053,11.449,11.449,0,0,0,5.794-1.594,18.215,18.215,0,0,0,5.178-4.67v7.745A15.307,15.307,0,0,1,907.389,1929.065Zm11.084-15.318h-8V1908h14.386v20.785h-6.381Z" transform="translate(-356.707)"/>
    <path id="Tracé_34" data-name="Tracé 34" d="M993.78,1888.8l9.8,19.024,9.964-19.024h8.34l-14.442,26.314v14.126H999.77V1915l-14.386-26.2Z" transform="translate(-416.621 -0.454)"/>
    <path id="Tracé_35" data-name="Tracé 35" d="M500.051,1888.35l-7.954,15.185v-15.47h-3.918v15.6l-7.887-15.316h-8.4l14.386,26.2v14.238h7.669v-14.124l14.442-26.311Z" transform="translate(-102.854 0)" fill="#036d7d"/>
  </g>
</svg>
