<svg xmlns="http://www.w3.org/2000/svg" width="143.482" height="19.5" viewBox="0 0 143.482 19.5">
  <g id="logo" transform="translate(-303.571 -1888.065)">
    <path id="Tracé_28" data-name="Tracé 28" d="M303.571,1908.028V1888.8h8.152a5.488,5.488,0,0,1,2.438.542,6.283,6.283,0,0,1,1.936,1.463,6.991,6.991,0,0,1,1.286,2.058,6.16,6.16,0,0,1,.46,2.329,6.62,6.62,0,0,1-.758,3.087,6.489,6.489,0,0,1-2.085,2.383,5.373,5.373,0,0,1-3.141.921h-4.55v6.446Zm3.737-9.723h4.333a2.073,2.073,0,0,0,1.219-.379,2.614,2.614,0,0,0,.867-1.1,3.935,3.935,0,0,0,.325-1.639,3.669,3.669,0,0,0-.365-1.706,2.59,2.59,0,0,0-.948-1.056,2.4,2.4,0,0,0-1.259-.352h-4.171Z" transform="translate(0 -0.598)" fill="#fff"/>
    <path id="Tracé_29" data-name="Tracé 29" d="M400.229,1893.238a4.648,4.648,0,0,0-.691-.515,7.672,7.672,0,0,0-1.219-.623,13.171,13.171,0,0,0-1.557-.528,6.437,6.437,0,0,0-1.706-.23,3.849,3.849,0,0,0-2.289.566,1.857,1.857,0,0,0-.772,1.59,1.619,1.619,0,0,0,.488,1.24,3.935,3.935,0,0,0,1.462.781q.975.324,2.437.7a17.131,17.131,0,0,1,3.291,1.118,5.307,5.307,0,0,1,2.14,1.725,4.818,4.818,0,0,1,.745,2.816,5.62,5.62,0,0,1-.569,2.627,4.712,4.712,0,0,1-1.571,1.765,7,7,0,0,1-2.275.984,11.436,11.436,0,0,1-2.708.31,14.107,14.107,0,0,1-2.871-.3,15.031,15.031,0,0,1-2.762-.853,12.637,12.637,0,0,1-2.437-1.341l1.652-3.223a5.334,5.334,0,0,0,.867.636,11.611,11.611,0,0,0,1.516.785,12.565,12.565,0,0,0,1.95.664,8.565,8.565,0,0,0,2.14.271,4.26,4.26,0,0,0,2.3-.509,1.746,1.746,0,0,0,.162-2.795,5.751,5.751,0,0,0-1.733-.85q-1.111-.364-2.627-.8a16.124,16.124,0,0,1-3.033-1.146,4.479,4.479,0,0,1-1.815-1.6,4.563,4.563,0,0,1-.6-2.427,5.62,5.62,0,0,1,.935-3.3,5.823,5.823,0,0,1,2.532-2.023,8.878,8.878,0,0,1,3.548-.688,10.65,10.65,0,0,1,2.559.3,12.637,12.637,0,0,1,2.261.785,13.39,13.39,0,0,1,1.9,1.056Z" transform="translate(-68.33)" fill="#fff"/>
    <path id="Tracé_30" data-name="Tracé 30" d="M602.505,1897.652a9.736,9.736,0,0,1,.636-3.453,10.024,10.024,0,0,1,1.855-3.087,8.953,8.953,0,0,1,2.979-2.221,9.33,9.33,0,0,1,4.008-.826,8.743,8.743,0,0,1,4.591,1.165,7.443,7.443,0,0,1,2.884,3.033l-2.871,1.977a4.585,4.585,0,0,0-1.273-1.72,4.75,4.75,0,0,0-1.679-.894,6.349,6.349,0,0,0-1.76-.257,5.041,5.041,0,0,0-2.451.569,5.464,5.464,0,0,0-1.747,1.49,6.324,6.324,0,0,0-1.043,2.058,7.933,7.933,0,0,0-.338,2.275,7.465,7.465,0,0,0,.406,2.451,6.686,6.686,0,0,0,1.151,2.085,5.51,5.51,0,0,0,1.788,1.436,4.989,4.989,0,0,0,2.288.528,5.861,5.861,0,0,0,1.814-.3,5.153,5.153,0,0,0,1.706-.948,4.305,4.305,0,0,0,1.219-1.679l3.06,1.76a5.73,5.73,0,0,1-1.855,2.437,9.272,9.272,0,0,1-2.884,1.517,10.292,10.292,0,0,1-3.169.515,8.3,8.3,0,0,1-3.764-.853,9.417,9.417,0,0,1-2.938-2.275,10.849,10.849,0,0,1-1.923-3.2A9.82,9.82,0,0,1,602.505,1897.652Z" transform="translate(-243.767)" fill="#fff"/>
    <path id="Tracé_31" data-name="Tracé 31" d="M722.838,1904.751v3.277H709.486V1888.8h13.108v3.277h-9.371v4.631h8.1v3.033h-8.1v5.01Z" transform="translate(-331.006 -0.598)" fill="#fff"/>
    <path id="Tracé_32" data-name="Tracé 32" d="M797.685,1908.028V1888.8h8.5a5.572,5.572,0,0,1,2.451.542,6.236,6.236,0,0,1,1.95,1.463,6.769,6.769,0,0,1,1.273,2.058,6.32,6.32,0,0,1,.447,2.329,6.644,6.644,0,0,1-.42,2.343,5.82,5.82,0,0,1-1.205,1.963,5.509,5.509,0,0,1-1.842,1.3l4.388,7.231h-4.117l-3.954-6.446h-3.737v6.446Zm3.737-9.723h4.685a1.977,1.977,0,0,0,1.246-.42,2.956,2.956,0,0,0,.867-1.124,3.7,3.7,0,0,0,.325-1.571,3.3,3.3,0,0,0-.379-1.611,3.172,3.172,0,0,0-.962-1.1,2.161,2.161,0,0,0-1.259-.406h-4.523Z" transform="translate(-402.928 -0.598)" fill="#fff"/>
    <path id="Tracé_33" data-name="Tracé 33" d="M897.652,1907.564a8.429,8.429,0,0,1-3.534-.758,9.216,9.216,0,0,1-2.925-2.1,9.722,9.722,0,0,1-1.963-3.128,10.467,10.467,0,0,1-.7-3.873,9.861,9.861,0,0,1,.7-3.724,9.547,9.547,0,0,1,1.977-3.074,9.35,9.35,0,0,1,2.979-2.085,9.035,9.035,0,0,1,3.71-.758,8.933,8.933,0,0,1,4.645,1.151,7.5,7.5,0,0,1,2.911,3.047l-2.789,2.058a5.179,5.179,0,0,0-2.045-2.193,5.617,5.617,0,0,0-2.857-.758,4.793,4.793,0,0,0-2.221.514,5.427,5.427,0,0,0-1.733,1.408,6.49,6.49,0,0,0-1.124,2.058,7.659,7.659,0,0,0-.393,2.464,7.455,7.455,0,0,0,.42,2.546,6.158,6.158,0,0,0,1.192,2.031,5.762,5.762,0,0,0,1.8,1.368,5.12,5.12,0,0,0,2.275.5,5.611,5.611,0,0,0,2.8-.758,8.76,8.76,0,0,0,2.505-2.221v3.683A7.458,7.458,0,0,1,897.652,1907.564Zm5.362-7.285h-3.873v-2.735h6.96v9.885h-3.087Z" transform="translate(-477.004)" fill="#fff"/>
    <path id="Tracé_34" data-name="Tracé 34" d="M989.446,1888.8l4.739,9.046,4.821-9.046h4.035l-6.987,12.512v6.717h-3.71v-6.771l-6.96-12.458Z" transform="translate(-555.988 -0.598)" fill="#fff"/>
    <path id="Tracé_35" data-name="Tracé 35" d="M485.517,1888.2l-3.848,7.221v-7.356h-1.9v7.419l-3.816-7.283h-4.062l6.96,12.458v6.771h3.71v-6.717l6.987-12.512Z" transform="translate(-137.26 0)" fill="#fff"/>
  </g>
</svg>
