<svg xmlns="http://www.w3.org/2000/svg" width="777.496" height="105.663" viewBox="0 0 777.496 105.663">
  <g id="logo_blanc" data-name="logo blanc" transform="translate(-303.571 -1888.065)">
    <path id="Tracé_28" data-name="Tracé 28" d="M303.571,1992.995V1888.8h44.172a29.743,29.743,0,0,1,13.209,2.935,34.048,34.048,0,0,1,10.492,7.925,37.879,37.879,0,0,1,6.971,11.153,33.382,33.382,0,0,1,2.495,12.621,35.87,35.87,0,0,1-4.109,16.73,35.153,35.153,0,0,1-11.3,12.915,29.114,29.114,0,0,1-17.023,4.989H323.823v34.928Zm20.252-52.685H347.3a11.233,11.233,0,0,0,6.6-2.055,14.164,14.164,0,0,0,4.7-5.943,21.322,21.322,0,0,0,1.76-8.879,19.881,19.881,0,0,0-1.98-9.246,14.036,14.036,0,0,0-5.137-5.723,12.979,12.979,0,0,0-6.824-1.908h-22.6Z" fill="#fff"/>
    <path id="Tracé_29" data-name="Tracé 29" d="M457.073,1916.095a25.163,25.163,0,0,0-3.742-2.788,41.563,41.563,0,0,0-6.6-3.376,71.452,71.452,0,0,0-8.439-2.861,34.888,34.888,0,0,0-9.245-1.247q-8.222,0-12.4,3.067a10.065,10.065,0,0,0-4.183,8.614,8.774,8.774,0,0,0,2.643,6.718,21.332,21.332,0,0,0,7.923,4.235q5.285,1.755,13.208,3.8a92.835,92.835,0,0,1,17.831,6.059,28.759,28.759,0,0,1,11.594,9.347q4.035,5.767,4.035,15.258a30.456,30.456,0,0,1-3.082,14.237,25.536,25.536,0,0,1-8.511,9.564,37.953,37.953,0,0,1-12.328,5.331,61.959,61.959,0,0,1-14.674,1.679,76.44,76.44,0,0,1-15.557-1.614,81.452,81.452,0,0,1-14.969-4.623,68.457,68.457,0,0,1-13.208-7.264l8.952-17.464a28.9,28.9,0,0,0,4.7,3.449,62.929,62.929,0,0,0,8.217,4.255,68.212,68.212,0,0,0,10.567,3.6,46.425,46.425,0,0,0,11.594,1.468q8.217,0,12.474-2.756a9.46,9.46,0,0,0,.88-15.144,31.188,31.188,0,0,0-9.392-4.6q-6.02-1.974-14.236-4.311a87.336,87.336,0,0,1-16.435-6.212,24.273,24.273,0,0,1-9.833-8.7q-3.231-5.259-3.229-13.153,0-10.668,5.064-17.9a31.557,31.557,0,0,1,13.72-10.96,48.117,48.117,0,0,1,19.225-3.729,57.708,57.708,0,0,1,13.869,1.614,68.443,68.443,0,0,1,12.254,4.256,72.485,72.485,0,0,1,10.272,5.724Z" fill="#fff"/>
    <path id="Tracé_30" data-name="Tracé 30" d="M602.505,1940.016a52.76,52.76,0,0,1,3.448-18.711,54.317,54.317,0,0,1,10.053-16.73,48.507,48.507,0,0,1,16.143-12.033,50.543,50.543,0,0,1,21.719-4.477q14.382,0,24.875,6.311a40.325,40.325,0,0,1,15.629,16.436l-15.556,10.713a24.841,24.841,0,0,0-6.9-9.318,25.729,25.729,0,0,0-9.1-4.843,34.39,34.39,0,0,0-9.539-1.4A27.315,27.315,0,0,0,640,1909.051a29.606,29.606,0,0,0-9.466,8.072,34.261,34.261,0,0,0-5.65,11.153,42.986,42.986,0,0,0-1.834,12.327,40.456,40.456,0,0,0,2.2,13.281,36.22,36.22,0,0,0,6.237,11.3,29.853,29.853,0,0,0,9.687,7.779,27.029,27.029,0,0,0,12.4,2.861,31.762,31.762,0,0,0,9.832-1.614,27.927,27.927,0,0,0,9.246-5.136,23.333,23.333,0,0,0,6.6-9.1l16.583,9.539a31.046,31.046,0,0,1-10.053,13.207,50.238,50.238,0,0,1-15.629,8.219,55.782,55.782,0,0,1-17.171,2.788,44.964,44.964,0,0,1-20.4-4.623,51.039,51.039,0,0,1-15.923-12.327,58.775,58.775,0,0,1-10.419-17.316A53.208,53.208,0,0,1,602.505,1940.016Z" fill="#fff"/>
    <path id="Tracé_31" data-name="Tracé 31" d="M781.837,1975.237v17.758H709.486V1888.8h71.03v17.757H729.739v25.095h43.879v16.437H729.739v27.149Z" fill="#fff"/>
    <path id="Tracé_32" data-name="Tracé 32" d="M797.685,1992.995V1888.8h46.081a30.2,30.2,0,0,1,13.281,2.935,33.793,33.793,0,0,1,10.566,7.925,36.675,36.675,0,0,1,6.9,11.153,34.247,34.247,0,0,1,2.422,12.621,36,36,0,0,1-2.276,12.7,31.538,31.538,0,0,1-6.53,10.639,29.86,29.86,0,0,1-9.98,7.044l23.775,39.184H859.615l-21.426-34.928H817.937v34.928Zm20.252-52.685h25.388a10.713,10.713,0,0,0,6.751-2.275,16.008,16.008,0,0,0,4.7-6.09,20.068,20.068,0,0,0,1.761-8.512,17.871,17.871,0,0,0-2.054-8.732,17.2,17.2,0,0,0-5.21-5.944,11.707,11.707,0,0,0-6.824-2.2H817.937Z" fill="#fff"/>
    <path id="Tracé_33" data-name="Tracé 33" d="M937.981,1993.728a45.67,45.67,0,0,1-19.151-4.109,49.943,49.943,0,0,1-15.85-11.373,52.68,52.68,0,0,1-10.639-16.95,56.725,56.725,0,0,1-3.816-20.986,53.447,53.447,0,0,1,3.816-20.179,51.756,51.756,0,0,1,10.713-16.657,50.673,50.673,0,0,1,16.143-11.3,48.957,48.957,0,0,1,20.1-4.109q14.673,0,25.169,6.237a40.615,40.615,0,0,1,15.775,16.51l-15.115,11.153a28.064,28.064,0,0,0-11.08-11.886,30.439,30.439,0,0,0-15.483-4.11,25.976,25.976,0,0,0-12.034,2.788,29.4,29.4,0,0,0-9.391,7.632,35.163,35.163,0,0,0-6.091,11.154,41.5,41.5,0,0,0-2.128,13.354,40.392,40.392,0,0,0,2.274,13.8,33.353,33.353,0,0,0,6.458,11.006,31.235,31.235,0,0,0,9.759,7.411,27.751,27.751,0,0,0,12.327,2.715,30.408,30.408,0,0,0,15.19-4.109,47.484,47.484,0,0,0,13.574-12.034v19.959Q955.443,1993.728,937.981,1993.728Zm29.058-39.476H946.053v-14.823h37.716v53.566h-16.73Z" fill="#fff"/>
    <path id="Tracé_34" data-name="Tracé 34" d="M1007.4,1888.8l25.682,49.016L1059.2,1888.8h21.866l-37.862,67.8v36.4h-20.1v-36.689L985.384,1888.8Z" fill="#fff"/>
    <path id="Tracé_35" data-name="Tracé 35" d="M545.712,1888.8l-20.853,39.128v-39.862H514.586v40.2L493.908,1888.8H471.895l37.716,67.507v36.688h20.105v-36.4l37.862-67.8Z" fill="#fff"/>
  </g>
</svg>
