<svg xmlns="http://www.w3.org/2000/svg" width="375" height="190.31" viewBox="0 0 375 190.31">
  <g id="fond_menu" data-name="fond menu" transform="translate(0 91)">
    <path id="Tracé_19" data-name="Tracé 19" d="M375-46.266s-35.513-64.892-79.874-79.637-101.4-17.49-184.8-22.772S.041-192.268.041-192.268L0-236.576H375Z" transform="translate(0 145.576)" fill="#f8e0c2"/>
    <path id="Tracé_18" data-name="Tracé 18" d="M375,16.4s-26.587-58.557-81.826-73.391C256.8-66.666,108.58-75.727,108.525-75.729,38.165-78.082,0-111.791,0-111.791V-154.97H375Z" transform="translate(0 64.561)" fill="#10aaa4"/>
    <path id="Tracé_17" data-name="Tracé 17" d="M375,147.758s-26-44.894-71.285-58.166S161.571,73.124,105.793,70.854C37.851,68.089,0,43.332,0,43.332V0H375Z" transform="translate(0 -91)" fill="#036d7d"/>
  </g>
</svg>
